<svg width="83" height="83" viewBox="0 0 83 83" fill="none" xmlns="http://www.w3.org/2000/svg">
<path d="M0 6C0 2.68629 2.68629 0 6 0H77C80.3137 0 83 2.68629 83 6V77C83 80.3137 80.3137 83 77 83H6C2.68629 83 0 80.3137 0 77V6Z" fill="#ECECEC"/>
<path d="M10.375 34.0788C10.375 31.8272 10.375 30.7014 10.8153 29.8423C11.1976 29.0963 11.8046 28.4893 12.5506 28.107C13.4097 27.6667 14.5355 27.6667 16.7871 27.6667V27.6667C18.2302 27.6667 18.9518 27.6667 19.5885 27.4459C20.1444 27.2531 20.6509 26.9401 21.0719 26.5291C21.5542 26.0583 21.8769 25.4129 22.5223 24.1222L26.5611 16.0445C27.099 14.9687 27.368 14.4308 27.8513 14.1321C28.3346 13.8334 28.936 13.8334 30.1388 13.8334H52.8612C54.064 13.8334 54.6654 13.8334 55.1487 14.1321C55.632 14.4308 55.901 14.9687 56.4389 16.0445L60.4777 24.1222C61.1231 25.4129 61.4458 26.0583 61.928 26.5291C62.3491 26.9401 62.8556 27.2531 63.4115 27.4459C64.0482 27.6667 64.7698 27.6667 66.2129 27.6667V27.6667C68.4645 27.6667 69.5903 27.6667 70.4494 28.107C71.1954 28.4893 71.8024 29.0963 72.1847 29.8423C72.625 30.7014 72.625 31.8272 72.625 34.0788V63.1667C72.625 65.9951 72.625 67.4093 71.7463 68.288C70.8676 69.1667 69.4534 69.1667 66.625 69.1667H16.375C13.5466 69.1667 12.1324 69.1667 11.2537 68.288C10.375 67.4093 10.375 65.9951 10.375 63.1667V34.0788Z" stroke="#6B6B6B" stroke-opacity="0.78" stroke-width="2"/>
<path d="M54.3333 44.9583C54.3333 52.046 48.5876 57.7917 41.5 57.7917C34.4123 57.7917 28.6666 52.046 28.6666 44.9583C28.6666 37.8707 34.4123 32.125 41.5 32.125C48.5876 32.125 54.3333 37.8707 54.3333 44.9583Z" stroke="#6B6B6B" stroke-opacity="0.78" stroke-width="2"/>
</svg>
