<svg width="45" height="45" viewBox="0 0 45 45" fill="none" xmlns="http://www.w3.org/2000/svg">
<path fill-rule="evenodd" clip-rule="evenodd" d="M3.75 22.5C3.75 12.1447 12.1447 3.75 22.5 3.75C32.8553 3.75 41.25 12.1447 41.25 22.5C41.25 28.4857 38.4452 33.8162 34.0782 37.2491C33.2965 34.9867 31.8664 32.9963 29.9573 31.5314C27.8179 29.8898 25.1966 29 22.5 29C19.8034 29 17.1821 29.8898 15.0427 31.5314C13.1336 32.9963 11.7035 34.9867 10.9218 37.2491C6.55478 33.8162 3.75 28.4857 3.75 22.5ZM28.7398 33.1181C30.4898 34.4609 31.7588 36.3316 32.3604 38.4509C29.4957 40.2255 26.1175 41.25 22.5 41.25C18.8825 41.25 15.5043 40.2255 12.6396 38.4509C13.2412 36.3315 14.5102 34.4609 16.2602 33.1181C18.0503 31.7445 20.2436 31 22.5 31C24.7564 31 26.9497 31.7445 28.7398 33.1181ZM17.875 16.875C17.875 14.3207 19.9457 12.25 22.5 12.25C25.0543 12.25 27.125 14.3207 27.125 16.875C27.125 19.4293 25.0543 21.5 22.5 21.5C19.9457 21.5 17.875 19.4293 17.875 16.875ZM22.5 10.25C18.8411 10.25 15.875 13.2161 15.875 16.875C15.875 20.5339 18.8411 23.5 22.5 23.5C26.1589 23.5 29.125 20.5339 29.125 16.875C29.125 13.2161 26.1589 10.25 22.5 10.25Z" fill="#828282"/>
<rect x="4.25" y="4.25" width="36.5" height="36.5" rx="18.25" stroke="#828282"/>
</svg>
